<svg id="Lag_1" data-name="Lag 1" xmlns="http://www.w3.org/2000/svg" viewBox="0 0 1868.55 429.29"><defs><style>.cls-1,.cls-3{fill:#1d1d1b;}.cls-2{font-size:166.53px;fill:#063;font-family:CooperBlack, Cooper Black;letter-spacing:0.06em;}.cls-3{stroke:#1d1d1b;stroke-miterlimit:10;}</style></defs><title>Go-Jagt-Logo-C2D1</title><path class="cls-1" d="M355.65,771.39c.77,2.81,8.54,25.55,9.13,28.88,7.28,41.34,8.14,62.82,15.93,104.4h41.7c2.34-19.33-8.88-22-20-25.52l-5.36-107.53Z" transform="translate(-14 -475.38)"/><path class="cls-1" d="M417.22,762.61h65.7c-2.55,11.46-1.64,23.1-6.93,27.87-10.1,9.1-9.06,18-7.57,28.45,20.65,3,31.13-1.95,36.39-17.62,4.87-14.52,9.34-29.22,13.16-44.06,5.82-22.64-4.56-35.89-27.84-36.21-14.17-.2-28.36,0-43,0,8.58-23.31,8.92-23.3,33.5-23.54,10.28-.1,28.27-17.31,28.11-24.53a4.78,4.78,0,0,1,.83-2.38c2.61-4.65,9.86-4,11.22,1.11a5.24,5.24,0,0,1,.15.79c1,8.61-.69,17.73,1.46,25.92,1.43,5.46,7,12.75,11.82,13.63,5.65,1,12.54-3.63,18.67-6.34l.06,0a4.71,4.71,0,0,0,2.78-4.19c.41-17.15-2.73-26.06-.26-27.25,0,0,6.71-4.23,5.86,9-.35,5.57,6.09,11.19,12.56,12.33l12.29,1.3a59.5,59.5,0,0,0,15.26-.22C626,692.88,634.9,675.55,626,646.83c-8.86,0-18.21,1.06-27.18-.34-7-1.08-13.45-5.26-20.17-8-8-3.26-16.11-9.21-24.17-9.23q-262.75-.81-525.51-.41H14c1.49,19.84,9.49,28.38,26.37,28.88,14.33.43,28.68.14,43,.15h45.89c0,24.29.27,46.11-.07,67.92-.51,33-21.26,53.53-54,53.79-11,.09-22.1,0-33.2,0v120H86.72l1.84-4.26L67.43,872.76c3-12.16,7.54-27.37,10.44-42.88C80,818.34,86,815.22,97,815.54c16.87.48,33.87.62,50.65-.93,33.41-3.08,57.16-20.88,70.77-51.37,4.29-9.63,6.14-20.36,9.41-31.64,23.78-2.38,44.11,4.73,63.76,15.67,9.61,5.36,19.54,12.13,29.77,15Z" transform="translate(-14 -475.38)"/><path class="cls-1" d="M161.82,873.1l20.36,22.42L178.9,900H135V829.9c56.67-2.64,92.75-30.32,106.19-84.4,1.93-.64,3-1.45,3.8-1.19,11.88,4,23.72,8.11,35.56,12.2-5.79,11.6-9.83,24.58-17.72,34.53-18.43,23.26-43.62,35.44-73.46,35.51-10.73,0-15.78,3.48-18.14,13.67C168.51,852.13,164.55,863.77,161.82,873.1Z" transform="translate(-14 -475.38)"/><text class="cls-2" transform="translate(615.37 336.27) scale(1.18 1)">GO<tspan class="cls-1" x="281.47" y="0">-Jagt</tspan></text><path class="cls-3" d="M1881,679.56A49.1,49.1,0,0,1,1841,646a56.13,56.13,0,0,0-98.72,4.86,62.41,62.41,0,0,1,67.58,70.65c-.06.32-.11.63-.15,1a78.35,78.35,0,0,1,72.76-42.76Zm-57.63-29.19-8.87-6.84a4.12,4.12,0,0,1,4-7.1,23,23,0,0,1,6,3.34,22.66,22.66,0,0,1,4.91,5.17C1831.87,648.73,1827,653.17,1823.32,650.37Z" transform="translate(-14 -475.38)"/><path class="cls-3" d="M1791.05,825.29a119.54,119.54,0,0,1-162.12,47.9l-3-1.62c29.45-4.37,52.54-21.35,57.39-45.39,3.81-18.95-4.51-38.23-20.67-53.11h0c0-.24,0-.47-.05-.69h0l-.84-.11h0c-12.44-11.14-29.32-19.7-48.77-23.62l-.16,0a71.36,71.36,0,0,1-37.29-20.09l-1.67-1.75a149.09,149.09,0,0,1,98-250.84,165.76,165.76,0,0,0,69.79,186.46q4.86,3.12,10,5.92l.06,0a119.54,119.54,0,0,1,39.27,156.95Z" transform="translate(-14 -475.38)"/></svg>